<svg width="1044" height="93" viewBox="0 0 1044 93" fill="none" xmlns="http://www.w3.org/2000/svg">
<path d="M17.5095 63.4C18.5335 68.392 19.4295 70.312 21.4775 72.36C24.9335 75.56 30.9495 77.736 36.9655 77.736C46.1815 77.736 53.4775 72.744 53.4775 66.728C53.4775 63.528 51.6855 60.84 48.2295 58.92C46.3095 57.896 43.6215 57 41.1895 56.104L31.2055 53.544C19.4295 50.6 13.0295 48.168 9.31748 45.096C4.83748 41.128 2.27748 35.24 2.27748 28.072C2.27748 11.304 14.9495 0.679993 34.9175 0.679993C47.7175 0.679993 57.4455 4.904 63.4615 12.584C66.9175 17.32 68.0695 21.544 68.4535 28.84H51.5575C50.0215 19.24 45.5415 15.656 34.9175 15.656C25.1895 15.656 19.0455 19.88 19.0455 26.408C19.0455 29.352 20.3255 31.528 22.7575 33.064C24.1655 33.96 26.4695 34.728 28.6455 35.368L33.1255 36.392L37.4775 37.416L41.8295 38.44C64.1015 43.944 71.0135 49.704 71.0135 63.4C71.0135 71.208 68.4535 77.864 63.3335 83.112C57.3175 89.128 48.8695 92.072 36.5815 92.072C22.1175 92.072 10.7255 87.208 4.96548 79.144C2.02148 74.536 0.997483 70.696 0.613483 63.4H17.5095ZM75.5665 3.62399H92.0785V33.576C96.5585 26.92 102.062 23.976 111.278 23.976C119.854 23.976 126.766 27.304 130.222 33.32C132.142 36.264 132.782 40.36 132.782 45.864V89H115.886V52.52C115.886 47.016 115.246 43.304 113.838 41.384C111.918 38.952 109.102 37.8 105.646 37.8C97.5825 37.8 92.0785 43.816 92.0785 52.904V89H75.5665V3.62399ZM139.081 25.512H155.593V89H139.081V25.512ZM139.081 3.62399H155.593V17.832H139.081V3.62399ZM199.725 45.096C199.213 39.208 195.373 36.264 188.077 36.264C182.573 36.264 178.349 38.952 178.349 42.408C178.349 44.584 179.629 46.376 182.317 47.656C183.725 48.552 186.157 49.192 188.205 49.704L190.253 50.216L192.557 50.6L194.605 51.112C212.397 55.208 217.901 59.56 217.901 69.928C217.901 83.24 207.661 91.304 190.381 91.304C176.941 91.304 167.853 87.848 162.989 81.064C160.557 77.608 159.661 74.792 159.533 68.776H176.429C177.069 71.848 177.709 73.64 179.245 75.176C181.165 77.224 185.645 78.632 190.253 78.632C196.397 78.632 200.749 75.944 200.749 71.976C200.749 69.928 199.341 68.136 196.653 66.728C195.245 65.832 192.941 65.192 190.893 64.68L188.845 64.296L186.541 63.784L184.493 63.4C166.829 59.304 161.709 55.08 161.709 44.84C161.709 39.336 163.629 34.344 167.085 30.888C171.693 26.28 180.269 23.464 189.101 23.464C199.725 23.464 208.429 26.664 212.525 32.424C214.701 35.496 215.725 38.568 216.365 45.096H199.725ZM222.486 3.62399H238.998V33.576C243.478 26.92 248.982 23.976 258.198 23.976C266.774 23.976 273.686 27.304 277.142 33.32C279.062 36.264 279.702 40.36 279.702 45.864V89H262.806V52.52C262.806 47.016 262.166 43.304 260.758 41.384C258.838 38.952 256.022 37.8 252.566 37.8C244.502 37.8 238.998 43.816 238.998 52.904V89H222.486V3.62399ZM286.001 3.62399H302.513V49.448L323.249 25.512H344.241L321.713 50.216L345.009 89H324.401L309.425 61.736L302.513 69.16V89H286.001V3.62399ZM383.413 81.32C379.445 87.336 372.149 91.048 363.573 91.048C351.157 91.048 343.477 84.008 343.477 72.232C343.477 65.448 346.165 59.432 350.773 56.36C353.973 53.928 359.733 52.52 369.461 51.112C376.629 50.088 378.165 49.832 380.213 48.808C382.005 47.784 382.901 46.376 383.029 44.712C383.413 40.488 379.317 37.16 373.301 37.16C366.005 37.16 362.037 40.104 361.525 45.992H345.653C346.037 39.208 347.445 35.368 351.413 31.4C356.405 26.408 363.701 24.104 374.837 24.104C385.205 24.104 393.397 27.56 397.365 33.192C398.901 35.624 399.669 39.08 399.669 43.688V76.456C399.669 78.632 400.053 80.936 400.693 83.112C401.077 84.648 401.589 85.544 403.509 86.952V89H384.565L383.413 81.32ZM382.773 59.432C377.013 60.84 374.453 61.48 371.893 61.992C363.189 63.912 360.629 65.832 360.629 70.824C360.629 75.944 363.573 78.504 369.589 78.504C374.325 78.504 379.189 75.944 381.109 72.488C382.261 70.568 382.773 67.624 382.773 64.04V59.432Z" fill="#00F43A"/>
<path d="M482.284 60.2C479.851 80.04 466.283 91.816 445.803 91.816C432.619 91.816 419.691 85.416 413.163 75.176C408.939 68.648 406.251 57.512 406.251 46.248C406.251 19.368 422.251 1.576 445.803 1.576C458.731 1.576 468.459 5.8 474.987 14.12C479.467 20.008 481.387 23.976 482.027 31.784H464.491C462.571 22.44 455.915 16.808 446.699 16.808C432.875 16.808 424.299 28.456 424.299 47.272C424.299 65.576 432.363 76.328 446.059 76.328C451.563 76.328 456.299 74.152 459.755 70.44C462.187 67.88 463.083 65.704 464.491 60.2H482.284ZM486.296 3.62399H502.808V89H486.296V3.62399ZM547.708 81.32C543.74 87.336 536.444 91.048 527.868 91.048C515.452 91.048 507.772 84.008 507.772 72.232C507.772 65.448 510.46 59.432 515.068 56.36C518.268 53.928 524.028 52.52 533.756 51.112C540.924 50.088 542.46 49.832 544.508 48.808C546.3 47.784 547.196 46.376 547.324 44.712C547.708 40.488 543.612 37.16 537.596 37.16C530.3 37.16 526.332 40.104 525.82 45.992H509.948C510.332 39.208 511.74 35.368 515.708 31.4C520.7 26.408 527.996 24.104 539.132 24.104C549.5 24.104 557.692 27.56 561.66 33.192C563.196 35.624 563.964 39.08 563.964 43.688V76.456C563.964 78.632 564.348 80.936 564.988 83.112C565.372 84.648 565.884 85.544 567.804 86.952V89H548.86L547.708 81.32ZM547.068 59.432C541.308 60.84 538.748 61.48 536.188 61.992C527.484 63.912 524.924 65.832 524.924 70.824C524.924 75.944 527.868 78.504 533.884 78.504C538.62 78.504 543.484 75.944 545.404 72.488C546.556 70.568 547.068 67.624 547.068 64.04V59.432ZM609.331 45.096C608.819 39.208 604.979 36.264 597.683 36.264C592.179 36.264 587.955 38.952 587.955 42.408C587.955 44.584 589.235 46.376 591.923 47.656C593.331 48.552 595.763 49.192 597.811 49.704L599.859 50.216L602.163 50.6L604.211 51.112C622.003 55.208 627.507 59.56 627.507 69.928C627.507 83.24 617.267 91.304 599.987 91.304C586.547 91.304 577.459 87.848 572.595 81.064C570.163 77.608 569.267 74.792 569.139 68.776H586.035C586.675 71.848 587.315 73.64 588.851 75.176C590.771 77.224 595.251 78.632 599.859 78.632C606.003 78.632 610.355 75.944 610.355 71.976C610.355 69.928 608.947 68.136 606.259 66.728C604.851 65.832 602.547 65.192 600.499 64.68L598.451 64.296L596.147 63.784L594.099 63.4C576.435 59.304 571.315 55.08 571.315 44.84C571.315 39.336 573.235 34.344 576.691 30.888C581.299 26.28 589.875 23.464 598.707 23.464C609.331 23.464 618.035 26.664 622.131 32.424C624.307 35.496 625.331 38.568 625.971 45.096H609.331ZM669.595 45.096C669.083 39.208 665.243 36.264 657.947 36.264C652.443 36.264 648.219 38.952 648.219 42.408C648.219 44.584 649.499 46.376 652.187 47.656C653.595 48.552 656.027 49.192 658.075 49.704L660.123 50.216L662.427 50.6L664.475 51.112C682.267 55.208 687.771 59.56 687.771 69.928C687.771 83.24 677.531 91.304 660.251 91.304C646.811 91.304 637.723 87.848 632.859 81.064C630.427 77.608 629.531 74.792 629.403 68.776H646.299C646.939 71.848 647.579 73.64 649.115 75.176C651.035 77.224 655.515 78.632 660.123 78.632C666.267 78.632 670.619 75.944 670.619 71.976C670.619 69.928 669.211 68.136 666.523 66.728C665.115 65.832 662.811 65.192 660.763 64.68L658.715 64.296L656.411 63.784L654.363 63.4C636.699 59.304 631.579 55.08 631.579 44.84C631.579 39.336 633.499 34.344 636.955 30.888C641.563 26.28 650.139 23.464 658.971 23.464C669.595 23.464 678.299 26.664 682.395 32.424C684.571 35.496 685.595 38.568 686.235 45.096H669.595ZM692.356 25.512H708.868V89H692.356V25.512ZM692.356 3.62399H708.868V17.832H692.356V3.62399ZM713.192 25.896H722.408C722.408 22.312 722.536 19.752 722.664 17.832C722.792 12.2 723.688 9.51199 726.248 7.07999C729.96 3.49599 735.976 1.70399 744.04 1.70399C745.96 1.70399 747.496 1.70399 749.928 1.83199V15.144L746.088 15.528C741.096 15.912 739.432 17.704 739.432 22.952V25.896H750.184V37.8H739.304V89H722.408V37.8H713.192V25.896ZM754.387 25.512H770.899V89H754.387V25.512ZM754.387 3.62399H770.899V17.832H754.387V3.62399ZM834.998 65.704C834.102 73.896 832.31 78.504 827.574 83.24C822.07 88.744 815.67 91.304 806.582 91.304C786.998 91.304 776.118 79.784 776.118 58.664C776.118 47.272 778.934 38.44 784.566 32.424C790.198 26.664 798.134 23.72 807.862 23.72C817.206 23.72 824.246 26.536 829.366 33.064C832.95 37.16 834.23 40.744 835.254 47.784H818.102C816.182 40.744 813.11 37.672 807.094 37.672C798.902 37.672 793.654 45.224 793.654 57.896C793.654 70.184 798.518 77.608 806.71 77.608C810.678 77.608 814.262 75.56 816.182 72.104C817.206 70.696 817.462 69.16 818.358 65.704H834.998ZM877.438 81.32C873.47 87.336 866.174 91.048 857.598 91.048C845.182 91.048 837.502 84.008 837.502 72.232C837.502 65.448 840.19 59.432 844.798 56.36C847.998 53.928 853.758 52.52 863.486 51.112C870.654 50.088 872.19 49.832 874.238 48.808C876.03 47.784 876.926 46.376 877.054 44.712C877.438 40.488 873.342 37.16 867.326 37.16C860.03 37.16 856.062 40.104 855.55 45.992H839.678C840.062 39.208 841.47 35.368 845.438 31.4C850.43 26.408 857.726 24.104 868.862 24.104C879.23 24.104 887.422 27.56 891.39 33.192C892.926 35.624 893.694 39.08 893.694 43.688V76.456C893.694 78.632 894.078 80.936 894.718 83.112C895.102 84.648 895.614 85.544 897.534 86.952V89H878.59L877.438 81.32ZM876.798 59.432C871.038 60.84 868.478 61.48 865.918 61.992C857.214 63.912 854.654 65.832 854.654 70.824C854.654 75.944 857.598 78.504 863.614 78.504C868.35 78.504 873.214 75.944 875.134 72.488C876.286 70.568 876.798 67.624 876.798 64.04V59.432ZM898.752 25.64H907.328V7.848H924.224V25.64H934.848V37.544H924.48V69.8C924.48 74.024 924.864 75.688 926.272 76.328C927.68 76.968 929.6 77.224 932.16 77.224L934.848 77.096V89.896H921.92C912.704 89.896 907.328 84.52 907.328 75.304V37.544H898.752V25.64ZM969.304 23.208C989.784 23.208 1002.07 36.008 1002.07 57.512C1002.07 78.632 989.784 91.688 969.304 91.688C948.824 91.688 936.536 78.632 936.536 57.512C936.536 36.008 948.824 23.208 969.304 23.208ZM969.432 37.416C959.704 37.416 954.328 44.584 954.328 57C954.328 70.952 959.32 77.864 969.432 77.864C979.16 77.864 984.408 70.824 984.408 57.64C984.408 44.456 979.16 37.416 969.432 37.416ZM1007.21 25.512H1022.83L1023.21 35.368C1026.92 27.56 1032.43 24.104 1043.95 23.464V40.36C1035.12 41 1032.56 41.256 1029.87 43.304C1025.64 45.992 1023.72 49.96 1023.72 56.104V89H1007.21V25.512Z" fill="#E6E6E6"/>
</svg>
